<svg width="64" height="64" viewBox="0 0 64 64" fill="none" xmlns="http://www.w3.org/2000/svg">
<rect width="64" height="64" rx="9" fill="white"/>
<path d="M29.8333 49.3333C26.0288 49.3449 22.3589 47.9261 19.5514 45.3584C16.744 42.7907 15.0042 39.2617 14.6769 35.4712C14.3497 31.6808 15.459 27.9058 17.7848 24.8949C20.1106 21.8841 23.4831 19.8573 27.2333 19.2167C39.5833 16.8333 42.8333 15.7067 47.1667 10.3333C49.3333 14.6667 51.5 19.39 51.5 27.6667C51.5 39.5833 41.1433 49.3333 29.8333 49.3333Z" stroke="black" stroke-width="4.33333" stroke-linecap="round" stroke-linejoin="round"/>
<path d="M10.3333 51.5C10.3333 45 14.3417 39.8867 21.34 38.5C26.5833 37.46 32 34.1667 34.1667 32" stroke="black" stroke-width="4.33333" stroke-linecap="round" stroke-linejoin="round"/>
</svg>
